<?xml version="1.0" encoding="UTF-8"?>
<svg id="Layer_1" xmlns="http://www.w3.org/2000/svg" version="1.1" viewBox="0 0 180 162">
  <!-- Generator: Adobe Illustrator 30.4.0, SVG Export Plug-In . SVG Version: 2.1.4 Build 226)  -->
  <defs>
    <style>
      .st0 {
        fill: #0a0f0f;
      }

      .st1 {
        fill: #0d393c;
      }

      .st2 {
        stroke-width: 6.58px;
      }

      .st2, .st3, .st4, .st5, .st6, .st7, .st8, .st9, .st10, .st11, .st12, .st13, .st14, .st15, .st16, .st17, .st18, .st19, .st20, .st21, .st22, .st23 {
        stroke-miterlimit: 10;
      }

      .st2, .st3, .st4, .st5, .st6, .st7, .st8, .st11, .st12, .st20 {
        fill: none;
      }

      .st2, .st3, .st4, .st5, .st8 {
        stroke: #9f4322;
      }

      .st3 {
        stroke-width: 9.34px;
      }

      .st4 {
        stroke-width: 9.1px;
      }

      .st5 {
        stroke-width: 8.7px;
      }

      .st6 {
        display: none;
        stroke: #ff1200;
        stroke-width: .5px;
      }

      .st7, .st14 {
        stroke-width: 3.35px;
      }

      .st7, .st14, .st17, .st20, .st21, .st22 {
        stroke: #283d3b;
      }

      .st8 {
        stroke-width: 4.18px;
      }

      .st9 {
        stroke-width: 5px;
      }

      .st9, .st10, .st24, .st15, .st16 {
        fill: #772e25;
      }

      .st9, .st10, .st15, .st16 {
        stroke: #c44536;
      }

      .st10 {
        stroke-width: 4px;
      }

      .st25 {
        fill: #f1e4dd;
      }

      .st26 {
        fill: #13565a;
      }

      .st27 {
        fill: #edddd4;
      }

      .st28 {
        fill: #d06a5e;
      }

      .st29 {
        fill: #b2a69f;
      }

      .st30 {
        fill: #933429;
      }

      .st31 {
        fill: #536462;
      }

      .st32 {
        fill: #3c1713;
      }

      .st33 {
        fill: #772e25;
      }

      .st34 {
        fill: #141f1e;
      }

      .st35 {
        fill: #59231c;
      }

      .st11 {
        stroke-width: 9.46px;
      }

      .st11, .st12, .st13, .st18 {
        stroke: #772e25;
      }

      .st12 {
        stroke-width: 7.69px;
      }

      .st13 {
        stroke-width: .4px;
      }

      .st13, .st36, .st18 {
        fill: #c44536;
      }

      .st14, .st37, .st17, .st19, .st21, .st22, .st23 {
        fill: #197278;
      }

      .st38 {
        fill: #776f6a;
      }

      .st39 {
        fill: #62231b;
      }

      .st15 {
        stroke-width: .84px;
      }

      .st16 {
        stroke-width: .67px;
      }

      .st17, .st18, .st19 {
        stroke-width: 2px;
      }

      .st40 {
        fill: #283d3b;
      }

      .st41 {
        fill: #108b93;
      }

      .st19, .st23 {
        stroke: #444343;
      }

      .st20, .st21 {
        stroke-width: .41px;
      }

      .st22, .st23 {
        stroke-width: .34px;
      }

      .st42 {
        fill: #925851;
      }
    </style>
  </defs>
  <rect class="st39" x="-428.14" y="-589.78" width="69.72" height="69.58"/>
  <rect class="st28" x="-219.41" y="-589.78" width="69.72" height="69.58"/>
  <rect class="st36" x="-288.95" y="-589.78" width="69.72" height="69.58"/>
  <rect class="st30" x="-358.36" y="-589.78" width="69.72" height="69.58"/>
  <rect class="st38" x="-428.14" y="-520.72" width="69.72" height="69.58"/>
  <rect class="st25" x="-219.41" y="-520.72" width="69.72" height="69.58"/>
  <rect class="st27" x="-288.95" y="-520.72" width="69.72" height="69.58"/>
  <rect class="st29" x="-358.36" y="-520.72" width="69.72" height="69.58"/>
  <rect class="st1" x="-428.14" y="-451.3" width="69.72" height="69.58"/>
  <rect class="st41" x="-219.41" y="-451.3" width="69.72" height="69.58"/>
  <rect class="st37" x="-288.95" y="-451.3" width="69.72" height="69.58"/>
  <rect class="st26" x="-358.36" y="-451.3" width="69.72" height="69.58"/>
  <rect class="st32" x="-428.14" y="-383.65" width="69.72" height="69.58"/>
  <rect class="st42" x="-219.41" y="-383.65" width="69.72" height="69.58"/>
  <rect class="st33" x="-288.95" y="-383.65" width="69.72" height="69.58"/>
  <rect class="st35" x="-358.36" y="-383.65" width="69.72" height="69.58"/>
  <rect class="st0" x="-428.07" y="-314.09" width="69.72" height="69.58"/>
  <rect class="st31" x="-219.34" y="-314.09" width="69.72" height="69.58"/>
  <rect class="st40" x="-288.88" y="-314.09" width="69.72" height="69.58"/>
  <rect class="st34" x="-358.29" y="-314.09" width="69.72" height="69.58"/>
  <g>
    <path class="st24" d="M495.07-440.36c13.21,0,17.29,3.71,17.29,13.5,0,4.6-.15,13.35-.15,17.51s1.66,8.43,9.05,8.23v2c-.61,0-3.35-.07-6.24.1-2.32.13-4.72.08-6.73.08-6.45,0-8.1-2.33-8.17-9.9h-.67c-.82,6.75-3.86,10.31-10.09,10.31-8.23,0-10.83-3.63-10.76-11.42,0-8.16,3.49-11.65,11.2-11.87,7.86-.15,8.46-1.78,8.46-6.9v-1.63c0-5.56-2.89-7.57-7.86-7.57-1.48,0-3.19.22-4.82.96l.22.59c.96-.22,1.85-.3,2.52-.3,3.56,0,6.31,1.85,6.31,5.93,0,3.56-1.63,6.45-7.2,6.45-4.38,0-7.2-2.3-7.2-6.6,0-5.86,3.93-9.5,14.84-9.5Z"/>
    <path class="st24" d="M457.43-436.95h-22.92v-2.19c2.97,0,3.56-1.54,3.56-4.38l.22-61.01c0-3.08-.67-4.3-3.78-4.3v-2.19h16.47c-.07,4.63-.07,10.06-.07,15.58,0,0,1.03-10.11,3.71-13.79,3.15-4.32,9.75-6.05,14.54-6.16,1.54-.04,3.17.12,4.43,1.08,1.96,1.48,2.46,4.36,2.8,6.94.17,1.25.33,2.51.37,3.77.02.64,0,1.28-.05,1.91-.06.59-.1,1.21-.24,1.79-.04.17-.09.34-.19.48-.19.29-.54.43-.87.53-.39.12-.81.19-1.22.13-.35-.05-.68-.21-1.01-.35-.75-.32-1.53-.59-2.33-.75-.92-.19-1.97-.26-2.83.19-.45.24-.7.6-1.01.98-.4.5-.36,1.26-.21,1.86.26,1.08.92,2.05,1.46,3.01.59,1.04,1.18,2.08,1.77,3.11.81,1.42,1.64,2.97,1.4,4.59-.2,1.36-1.17,2.53-2.37,3.2s-2.6.9-3.98.92c-1.05.01-2.12-.1-3.1-.49s-1.87-1.06-2.37-1.99c-.49-.91-.57-2-.34-3s.78-1.91,1.46-2.68c1.08-1.21,2.75-2.06,3.36-3.59s.56-3.28-.08-4.76c-.28-.66-.68-1.27-1.15-1.81-2.68-3.09-7.79-1.37-9.42,1.98-.46.94-.76,1.92-1.08,2.91-.14.42-.14.83-.14,1.29l-.22,49.25c0,4.54.89,5.76,5.42,5.76v2.19Z"/>
    <path class="st24" d="M484.3-399.33l2.63.81h-29.08v-2c2.89,0,3.41-1.19,3.41-4.08v-28.19c0-2.97-.59-4.15-3.86-4.15v-2.19s17.8,10.99,17.8,10.99v23.04c0,.27-.07.55.02.82.04.14.06.28.11.42.1.28.25.54.43.78.41.56.96,1.01,1.53,1.4.66.45,1.38.82,2.11,1.14s1.51.59,2.29.8c.68.18,1.37.33,2.06.39.18.02.35.02.53.02Z"/>
    <path class="st24" d="M557.63-399.12h-17.43v-2c1.78,0,2.08-1.04,2.08-3.49v-22.85c0-4.67-.74-5.93-2.67-5.93-1.63,0-3.34,1.34-3.34,7.72v21.07c0,2.45.45,3.49,2.15,3.49v2h-19.51v-1.99c2.89,0,3.41-1.12,3.41-3.94v-28.56c0-3.12-.59-3.93-3.71-3.93v-2h16.39c-.07,3.34-.07,6.53-.07,11.35h.67c1.04-10.02,4.15-12.24,10.61-12.24,7.34,0,10.16,4.01,10.09,12.69v8.75c0,1.59,0,3.18,0,4.77v4.42c0,1.1,0,2.21,0,3.31,0,.71-.04,1.43.07,2.13.12.78.36,1.54.7,2.24.06.13.13.25.22.35.22.23.57.29.89.32,1.08.1,2.21.01,3.19-.46.2-.09.39-.2.55-.35.16-.13.28-.3.41-.46.21-.27.43-.54.64-.8.09-.12.15-.28.29-.2.08.04.16.27.21.35.29.47.63.91.99,1.31.75.82,1.64,1.52,2.63,2.03-.03-.02.66.69-.26.69-.75,0-3.11.03-3.85.06-1.79.09-3.58.15-5.38.15ZM567.11-400.02s.72.66-.26.69c-.75.02-3.03.1-3.85.06"/>
    <path class="st27" d="M487.65-413.69s2.82,1.95-1.58,8.35c0,0,4.97-5.78,7.76-3.63,0,0-2.35-2.68,1.34-8.17,0,0-4.12,4.57-7.52,3.45Z"/>
    <path class="st24" d="M575.67-440.96c13.21,0,17.29,3.71,17.29,13.5,0,4.6-.15,13.35-.15,17.51s1.66,8.43,9.05,8.23v2c-.61,0-3.35-.07-6.24.1-2.32.13-4.72.08-6.73.08-6.45,0-8.1-2.33-8.17-9.9h-.67c-.82,6.75-3.86,10.31-10.09,10.31-.37,0-.73,0-1.1-.02-.35-.01-.69-.04-1.03-.07-.32-.03-.65-.07-.97-.12-.3-.05-.6-.1-.9-.16-.28-.06-.56-.13-.83-.21-.26-.08-.52-.16-.77-.26s-.48-.2-.71-.31-.44-.23-.65-.36-.4-.26-.59-.41-.36-.29-.53-.46-.33-.33-.48-.5-.29-.36-.43-.55c-.04-.06-.12-.17-.12-.17,0,0-.25-.4-.35-.61-.13-.25-.24-.5-.35-.75s-.2-.54-.29-.82c-.09-.29-.17-.59-.23-.88-.07-.31-.13-.63-.18-.95-.05-.34-.09-.67-.13-1.01-.04-.36-.06-.72-.08-1.08-.02-.38-.03-.76-.03-1.15,0-.19,0-.38,0-.57,0-8.16,3.49-11.65,11.2-11.87,7.86-.15,8.46-1.78,8.46-6.9v-1.63c0-5.56-2.89-7.57-7.86-7.57-1.48,0-3.19.22-4.82.96l.22.59c.96-.22,1.85-.3,2.52-.3,3.56,0,6.31,1.85,6.31,5.93,0,3.56-1.63,6.45-7.2,6.45-4.38,0-7.2-2.3-7.2-6.6,0-5.86,3.93-9.5,14.84-9.5Z"/>
    <path class="st27" d="M570.12-413.45s2.82,1.95-1.58,8.35c0,0,4.97-5.78,7.76-3.63,0,0-2.35-2.68,1.34-8.17,0,0-4.12,4.57-7.52,3.45Z"/>
    <g>
      <path class="st24" d="M414.19-478.44c13.21,0,17.29,3.71,17.29,13.5,0,2.27-.03,4.53-.05,6.8-.03,2.83.02,5.66-.08,8.49-.09,2.61-.47,5.3.59,7.79.23.55.55,1.08,1,1.46,1.09.92,3.04,1.23,4.27.45.17-.11.34-.24.53-.29.3-.08.65.05.82.32.18.28.15.64.12.97-.03.27-.05.53-.08.8-.02.21.02.66-.09.84-.14.24-1.05.37-1.32.37-1.07.01-1.9.02-2.96,0-2.4-.04-4.92-.1-7.31-.1-2.21,0-4.76-.36-6.15-2.29-.64-.89-.97-1.97-1.17-3.03-.08-.42-.5-4.55-.36-4.55h-.67c-.82,6.75-3.86,10.31-10.09,10.31-8.23,0-10.83-3.63-10.76-11.42,0-8.16,3.49-11.65,11.2-11.87,7.86-.15,8.46-1.78,8.46-6.9v-1.63c0-5.56-2.89-7.57-7.86-7.57-1.48,0-3.19.22-4.82.96l.22.59c.96-.22,1.85-.3,2.52-.3,3.56,0,6.31,1.85,6.31,5.93,0,3.56-1.63,6.45-7.2,6.45-4.38,0-7.2-2.3-7.2-6.6,0-5.86,3.93-9.5,14.84-9.5Z"/>
      <path class="st27" d="M405.97-452.37s2.82,1.95-1.58,8.35c0,0,4.97-5.78,7.76-3.63,0,0-2.35-2.68,1.34-8.17,0,0-4.12,4.57-7.52,3.45Z"/>
    </g>
    <path class="st24" d="M465.25-447.23c-.53,2.14-.37,4.51.74,6.41s3.28,3.23,5.48,3.06c.9-.07,1.81-.4,2.41-1.08.98-1.11.86-2.8.51-4.24-.7-2.92-2.13-5.66-4.1-7.93-1.13-1.3-1.82-2.32-3-.62-.92,1.33-1.66,2.82-2.05,4.4Z"/>
    <path class="st24" d="M370.97-443.43c0,3.29.49,4.61,2.22,4.61v2.22h-20.08v-2.22c1.97,0,2.3-1.32,2.3-4.53v-24.61c0-5.27-.91-6.67-2.96-6.67-2.22,0-3.7,1.56-3.7,8.48v22.8c0,3.21.49,4.53,2.39,4.53v2.22h-21.65v-2.22c3.21,0,3.79-1.32,3.79-4.61v-31.19c0-3.54-.74-4.61-4.2-4.61v-2.22h18.35c-.16,3.87-.16,7.32-.16,12.67h.66c1.07-11.28,5.02-13.66,11.77-13.66,7.16,0,9.46,3.13,9.79,13.66h.66c.91-10.86,4.77-13.66,11.85-13.66,8.15,0,11.19,4.28,11.19,13.58v25.43c0,1.33.04,3.06,1.19,3.97,1.08.84,2.89,1.01,4.05.26.28-.18.52-.42.69-.71.17-.29.15-.45-.08-.84-.57-.95-.18-1.92.92-2.21.58-.15,1.19-.07,1.78.04,2.47.46,4.86,1.38,7,2.7.42.26.83.54,1.12.93s.42.93.22,1.38c-.33.74-1.32,1.3-2.13,1.3-1.17,0-15.62,0-23.43,0h-9.19v-2.22c1.89,0,2.3-1.32,2.3-4.53v-24.61c0-5.27-.91-6.67-2.96-6.67-2.22,0-3.7,1.48-3.7,8.23v22.96Z"/>
    <path class="st24" d="M566.51-437.91"/>
    <path class="st24" d="M566.51-437.78"/>
  </g>
  <path class="st2" d="M588.07-48.48"/>
  <path class="st2" d="M592.34-70.47"/>
  <path class="st8" d="M183.49-1087.02"/>
  <g>
    <path class="st3" d="M583-66.35"/>
    <path class="st24" d="M442.77,40.45h0c3.27,0,6.18,2.09,7.23,5.19l17.24,51.11c.14.41.72.41.85,0l18.32-52.28c.85-2.42,3.11-4.05,5.67-4.08h0c3.36-.05,6.12,2.63,6.18,5.99l.84,60.96s-.28,1.06-.95,1.06l-5.71.14c-.67,0-1.02-.4-1.02-1.08l-.2-39.1c0-1.39.03-3.69.09-6.91.02-.88.03-1.78.04-2.7.02-1.39-1.94-1.73-2.38-.41l-15.41,45.89c-.86,2.57-3.27,4.3-5.98,4.3h0c-2.7,0-5.11-1.72-5.98-4.29l-15.54-45.85c-.45-1.33-2.4-.98-2.38.43.01.72.03,1.4.04,1.99.09,3.41.14,5.93.14,7.53v35.81c0,2.4-1.97,4.37-4.37,4.37h0c-2.41,0-4.36-1.95-4.36-4.36v-56.1c0-4.2,3.43-7.63,7.63-7.63Z"/>
    <path class="st11" d="M399.02,81.98"/>
    <path class="st4" d="M468.26,133.47"/>
    <path class="st4" d="M511.52,125.5"/>
    <path class="st12" d="M423.14,141.04c-25.28.47-26.99-14.02-26.99-54.01,0-42.27,25.02-76.54,71.69-76.54s74.82,34.39,71.69,76.54c-.85,11.44-5.55,20.68-6.2,21.93"/>
    <path class="st12" d="M534.59,106.47c-4.07,9.66-12.42,16.85-21.84,16.85s-17.52-5.82-17.48-16.05"/>
    <path class="st5" d="M376.18,141.13"/>
    <path class="st24" d="M479.56,140.86c0,5.63,0,11.26,0,16.89l2.4-2.4c-6.77,0-13.53,0-20.3,0-.96,0-1.91,0-2.87,0,.8.8,1.6,1.6,2.4,2.4,0-5.63,0-11.26,0-16.89l-2.4,2.4c6.77,0,13.53,0,20.3,0,.96,0,1.91,0,2.87,0,3.09,0,3.09-4.8,0-4.8-6.77,0-13.53,0-20.3,0-.96,0-1.91,0-2.87,0-1.3,0-2.4,1.1-2.4,2.4,0,5.63,0,11.26,0,16.89,0,1.3,1.1,2.4,2.4,2.4,6.77,0,13.53,0,20.3,0,.96,0,1.91,0,2.87,0,1.3,0,2.4-1.1,2.4-2.4,0-5.63,0-11.26,0-16.89,0-3.09-4.8-3.09-4.8,0Z"/>
    <path class="st24" d="M513.24,158.94c0,3.4,0,6.79,0,10.19l1.38-1.38c-3.05,0-6.1,0-9.16,0-7.33,0-14.66,0-22,0-8.92,0-17.83,0-26.75,0-7.67,0-15.35,0-23.02,0h-7.59c-1.15,0-2.48-.19-3.61,0-.05,0-.11,0-.16,0l1.38,1.38c0-3.4,0-6.79,0-10.19l-1.38,1.38c3.05,0,6.1,0,9.16,0,7.33,0,14.66,0,22,0,8.92,0,17.83,0,26.75,0,7.67,0,15.35,0,23.02,0,3.72,0,7.49.17,11.21,0,.05,0,.11,0,.16,0,1.77,0,1.78-2.76,0-2.76-3.05,0-6.1,0-9.16,0-7.33,0-14.66,0-22,0-8.92,0-17.83,0-26.75,0-7.67,0-15.35,0-23.02,0-3.72,0-7.49-.17-11.21,0-.05,0-.11,0-.16,0-.74,0-1.38.63-1.38,1.38,0,3.4,0,6.79,0,10.19,0,.74.63,1.38,1.38,1.38,3.05,0,6.1,0,9.16,0,7.33,0,14.66,0,22,0,8.92,0,17.83,0,26.75,0,7.67,0,15.35,0,23.02,0,3.72,0,7.49.17,11.21,0,.05,0,.11,0,.16,0,.74,0,1.38-.63,1.38-1.38,0-3.4,0-6.79,0-10.19,0-1.77-2.76-1.78-2.76,0Z"/>
    <path class="st24" d="M378.69,137.28c-5.98,0-11.99.15-17.97,0s-9.1-3.41-9.23-9.16c-.21-9.31,0-18.65,0-27.96V10.26c0-7.34-2.73-21.91,7.8-22.79,4.4-.37,8.99,0,13.4,0h196.63c1.12,0,2.29-.09,3.4,0,6.23.52,7.8,5.28,7.8,10.49v119.67c0,7.18,2.16,18.9-8.02,19.65-7.03.52-14.31,0-21.36,0l-44.48-.02c-26.75-.01-53.51-.02-80.26-.03-1.57,0-3.14,0-4.71,0-4.95,0-4.96,7.69,0,7.69,21.85,0,43.7.02,65.55.03,27.44.01,54.87.02,82.31.03,3.53,0,6.95-.01,10.22-1.71,5.85-3.04,8.37-8.83,8.43-15.14.1-10.17,0-20.35,0-30.52,0-30.64,0-61.28,0-91.93,0-10.27.73-22.91-12.45-25.57-5.31-1.07-11.34-.33-16.7-.33h-177.38c-7.14,0-14.3-.11-21.44,0-5.92.09-11.39,2.52-14.41,7.87-2,3.54-2.02,7.25-2.02,11.13v124.16c0,2.17-.09,4.36,0,6.53.4,9.4,7.54,15.39,16.68,15.51,6.07.08,12.15,0,18.22,0,4.95,0,4.96-7.69,0-7.69h0Z"/>
  </g>
  <g id="cheery">
    <path class="st19" d="M1247.35-544.76"/>
    <path class="st17" d="M1230.92-512.54l.28-.55.18-.43,1.95-4.7s28.39,69.5,51.42,96.15l5.92,2.18-.89-5.55s-55.19-98.61-42.13-119.8l-.29.48c.25-.48.37-.73.37-.73l-28.54-11.63c17.07,18.12-62.98,177.38-62.98,177.38l.25,5.62,5.36-3.33c10.02-19.36,47.35-92.48,69.37-135.63"/>
    <path class="st10" d="M1288.77-426.83c-1.75-7.64-.88-10.38-.88-10.38.03-.22.05-.43.08-.64,1.9-13.69,16.69-21.54,29.19-15.65,14.85,7,17.66,17.64,21.11,26.27,2.98,7.47,5.49,34.38,6.19,40.53.46,3.97,4.83,35.45,4.83,35.45-8.1-2.24-65.02-20-66.71-20.71-19.86-8.33-27.05-20.97-29.64-29.56-2.01-6.69-.73-14.1,4.09-19.15,10.44-10.94,27.6-2.45,27.6-2.45l4.97,1.74-.84-5.46Z"/>
    <path class="st9" d="M1161.82-377.46s13.61-13.06,26.85-6.07c6.09,3.21,9.71,9.66,9.95,16.54.31,8.93,2.63,21.6-19.07,37.77-15.58,11.61-48.1,33.44-57.08,40.25,0,0-13.46-67.61-12.92-75.68.62-9.3.01-20.31,12.07-31.57,9.91-9.25,26.1-6.71,32.22,5.38.19.38.38.77.57,1.17,0,0,1.13,2.13,1.82,9.93v6.65l5.61-4.36Z"/>
  </g>
  <g>
    <rect class="st27" x="939.67" y="-211.75" width="41.79" height="60.98"/>
    <rect class="st36" x="857.41" y="-211.75" width="41.79" height="60.98"/>
    <rect class="st37" x="898.02" y="-211.75" width="41.79" height="60.98"/>
    <rect class="st24" x="981.46" y="-211.75" width="41.79" height="60.98"/>
    <rect class="st40" x="816.56" y="-211.75" width="41.79" height="60.98"/>
  </g>
  <g>
    <rect class="st27" x="960.55" y="272.79" width="41.79" height="60.98"/>
    <rect class="st36" x="878.29" y="272.79" width="41.79" height="60.98"/>
    <rect class="st37" x="918.9" y="272.79" width="41.79" height="60.98"/>
    <rect class="st24" x="1002.34" y="272.79" width="41.79" height="60.98"/>
    <rect class="st40" x="837.45" y="272.79" width="41.79" height="60.98"/>
  </g>
  <g>
    <rect class="st27" x="1323.73" y="272.79" width="41.79" height="60.98"/>
    <rect class="st36" x="1241.47" y="272.79" width="41.79" height="60.98"/>
    <rect class="st37" x="1282.08" y="272.79" width="41.79" height="60.98"/>
    <rect class="st24" x="1365.52" y="272.79" width="41.79" height="60.98"/>
    <rect class="st40" x="1200.63" y="272.79" width="41.79" height="60.98"/>
  </g>
  <g>
    <rect class="st27" x="1276.98" y="-211.75" width="41.79" height="60.98"/>
    <rect class="st36" x="1194.72" y="-211.75" width="41.79" height="60.98"/>
    <rect class="st37" x="1235.33" y="-211.75" width="41.79" height="60.98"/>
    <rect class="st24" x="1318.77" y="-211.75" width="41.79" height="60.98"/>
    <rect class="st40" x="1153.88" y="-211.75" width="41.79" height="60.98"/>
  </g>
  <g>
    <rect class="st27" x="1711.22" y="-211.75" width="41.79" height="60.98"/>
    <rect class="st36" x="1628.96" y="-211.75" width="41.79" height="60.98"/>
    <rect class="st37" x="1669.57" y="-211.75" width="41.79" height="60.98"/>
    <rect class="st24" x="1753.01" y="-211.75" width="41.79" height="60.98"/>
    <rect class="st40" x="1588.11" y="-211.75" width="41.79" height="60.98"/>
  </g>
  <g>
    <rect class="st27" x="533.54" y="-687.23" width="41.79" height="60.98"/>
    <rect class="st36" x="451.28" y="-687.23" width="41.79" height="60.98"/>
    <rect class="st37" x="491.89" y="-687.23" width="41.79" height="60.98"/>
    <rect class="st24" x="575.33" y="-687.23" width="41.79" height="60.98"/>
    <rect class="st40" x="410.44" y="-687.23" width="41.79" height="60.98"/>
  </g>
  <g>
    <rect class="st27" x="-241.27" y="-193.19" width="41.79" height="60.98"/>
    <rect class="st36" x="-323.53" y="-193.19" width="41.79" height="60.98"/>
    <rect class="st37" x="-282.92" y="-193.19" width="41.79" height="60.98"/>
    <rect class="st24" x="-199.48" y="-193.19" width="41.79" height="60.98"/>
    <rect class="st40" x="-364.37" y="-193.19" width="41.79" height="60.98"/>
  </g>
  <g>
    <path class="st40" d="M839.97-371.83s-1.43,50.83-39.73,64.07v2.51h95.21v-3.58s-34.9-.54-39.02-63h-16.47Z"/>
    <polygon class="st37" points="893.03 -402.5 924.83 -371.49 908.33 -391.57 863.01 -373.55 848.76 -354.26 839.85 -365.16 807.35 -393.76 758.65 -356.44 789.45 -390.03 775.99 -432.42 755.7 -450.16 775.67 -465.47 801.7 -495.58 761.89 -541.92 798.6 -512.77 831.47 -526.02 848.6 -543.88 861.22 -530.33 891.64 -509.06 938.45 -543.64 900.02 -493.92 909.59 -475.79 941.78 -450.16 928.86 -441.98 893.03 -402.5"/>
    <path class="st40" d="M857.44-365.99s30.45-34.43,82.48,12.19c0,0-41.3-50.86-13.43-85.1.74-.91,1.66-2.11,2.36-3.07,0,0-36.36,29.73-81.29-9.33,0,0,33.53,44.82,9.87,85.32Z"/>
    <path class="st40" d="M767.33-439.99s32.86,31.91-11.63,86.43c0,0,48.54-43.27,81.22-14.07.87.78,2.01,1.74,2.93,2.48,0,0-28.37-38.1,8.91-85.17,0,0-42.78,35.14-81.43,10.35Z"/>
    <path class="st40" d="M929.45-460s-32.86-31.91,11.63-86.43c0,0-48.54,43.27-81.22,14.07-.87-.78-2.01-1.74-2.93-2.48,0,0,28.37,38.1-8.91,85.17,0,0,42.78-35.14,81.43-10.35Z"/>
    <path class="st40" d="M839.66-534.57s-30.45,34.43-82.48-12.19c0,0,41.3,50.86,13.43,85.1-.74.91-1.66,2.11-2.36,3.07,0,0,36.36-29.73,81.29,9.33,0,0-33.53-44.82-9.87-85.32Z"/>
  </g>
  <g>
    <path class="st37" d="M819.63,112.7s-1.39,49.36-38.58,62.22v2.43h92.46v-3.48s-33.89-.52-37.89-61.18h-15.99Z"/>
    <polygon class="st40" points="871.15 82.92 902.04 113.03 886.02 93.54 842 111.04 828.17 129.76 819.52 119.18 787.95 91.41 740.65 127.66 770.56 95.04 757.5 53.86 737.79 36.64 757.19 21.77 782.47 -7.47 743.81 -52.47 779.46 -24.16 811.37 -37.03 828.01 -54.37 840.27 -41.21 869.8 -20.56 915.27 -54.15 877.94 -5.86 887.24 11.75 918.5 36.64 905.95 44.58 871.15 82.92"/>
    <path class="st37" d="M836.6,118.37s29.57-33.44,80.1,11.83c0,0-40.11-49.39-13.04-82.64.72-.89,1.61-2.05,2.29-2.98,0,0-35.31,28.87-78.94-9.06,0,0,32.57,43.53,9.59,82.86Z"/>
    <path class="st37" d="M749.09,46.52s31.91,30.98-11.29,83.93c0,0,47.14-42.02,78.87-13.67.85.76,1.95,1.69,2.85,2.4,0,0-27.55-37,8.65-82.71,0,0-41.54,34.12-79.08,10.05Z"/>
    <path class="st37" d="M906.53,27.08s-31.91-30.98,11.29-83.93c0,0-47.14,42.02-78.87,13.67-.85-.76-1.95-1.69-2.85-2.4,0,0,27.55,37-8.65,82.71,0,0,41.54-34.12,79.08-10.05Z"/>
    <path class="st37" d="M819.33-45.33s-29.57,33.44-80.1-11.83c0,0,40.11,49.39,13.04,82.64-.72.89-1.61,2.05-2.29,2.98,0,0,35.31-28.87,78.94,9.06,0,0-32.57-43.53-9.59-82.86Z"/>
  </g>
  <polygon class="st18" points="772.2 446.32 772.2 649.16 831.33 590.9 916.02 590.74 772.2 446.32"/>
  <rect class="st27" x=".05" y="0" width="180" height="162"/>
  <g>
    <path class="st36" d="M1228.5,405.05s-4.92,117.75-89.4,134.24c0,0,77.54,6.08,89.83,133.66,0,0,4.77-119.2,89.83-132.5,0,0-78.98-17.36-90.27-135.4Z"/>
    <path class="st27" d="M1228.64,447.72s-3.35,80.24-60.92,91.48c0,0,52.84,4.14,61.22,91.09,0,0,3.25-81.23,61.22-90.3,0,0-53.82-11.83-61.51-92.27Z"/>
  </g>
  <g>
    <path class="st40" d="M1202.38-65.67c.89-1.83,2.13-2.58,2.7-2.56,1.6.07,1.6,73.77,1.58,89.25,0,1.84-.63,3.62-1.77,5.06l-2.09,2.64c-2.56,3.23-2.32,7.87.58,10.81h0c3.13,3.18,8.23,3.27,11.46.19l.29-.27c2.95-2.8,3.38-7.35,1.02-10.66l-2.06-2.89c-.95-1.33-1.47-2.9-1.51-4.53-.37-14.75-2.09-90,1.11-89.59.43.05,1.87,2.01,3.74,5.48,11.4,21.19,47.86,93.68,47.86,93.68,1.8,3.44,1.91,7.51.29,11.04l-15.26,29.2c-1.41,2.7-4.2,4.39-7.24,4.39h-67.46c-3.01,0-5.77-1.65-7.2-4.3-5.11-9.51-16.82-31.8-16.54-35.43.91-11.69,19.41-37.73,50.51-101.5Z"/>
    <rect class="st40" x="1161.35" y="84.12" width="95.86" height="25.76" rx="2.19" ry="2.19"/>
    <rect class="st40" x="1170.28" y="116.82" width="78" height="39.55" rx="2.06" ry="2.06"/>
  </g>
  <path class="st24" d="M1685.51,29.55l.02,67.74c0,8.77,1.31,12.28,5.92,12.28v5.92h-53.49v-5.92c5.26,0,6.14-3.51,6.14-12.06V31.96"/>
  <path class="st24" d="M1644.1,32.04c0-14.03-2.41-17.76-7.89-17.76-5.92,0-9.86,3.95-9.86,21.92v61.17c0,8.77,1.31,12.28,5.92,12.28v5.92h-53.49v-5.92c5.26,0,6.14-3.51,6.14-12.06V32.04c0-14.03-2.41-17.76-7.89-17.76-5.92,0-9.87,4.17-9.87,22.58v60.72c0,8.55,1.32,12.06,6.36,12.06v5.92h-57.66v-5.92c8.55,0,10.08-3.51,10.08-12.28V14.29c0-9.43-1.97-12.28-11.18-12.28V-3.91h48.89c-.44,10.3-.44,19.51-.44,33.76h1.75c2.85-30.03,13.37-36.39,31.35-36.39,19.07,0,25.21,8.33,26.09,36.39h1.75c2.41-28.94,12.71-36.39,31.57-36.39,21.7,0,29.82,11.4,29.82,36.17"/>
  <rect class="st27" x="-76.89" y="-617.67" width="306" height="396"/>
  <g>
    <ellipse class="st14" cx="1594.11" cy="-428.95" rx="88.69" ry="132.34" transform="translate(237.36 511.47) rotate(-19.67)"/>
    <polyline class="st7" points="1499.81 -450.06 1572.61 -490.44 1653.67 -505.05 1572.61 -490.44 1549.57 -553.57"/>
  </g>
  <g id="cheery1" data-name="cheery">
    <path class="st23" d="M22.99,106.41"/>
    <path class="st22" d="M22.54,111.18v-.08s0-.06,0-.06v-.67s6.91,7.18,11.05,9.33l.84-.02-.38-.64s-11.63-9.45-11.05-12.7v.07c0-.07,0-.11,0-.11l-4.09-.04c2.99,1.4.92,24.94.92,24.94l.31.68.5-.67c.29-2.88,1.31-13.72,1.91-20.11"/>
    <path class="st16" d="M33.86,118.92c-.59-.86-.62-1.24-.62-1.24,0-.03-.01-.06-.02-.08-.44-1.78,1-3.47,2.83-3.36,2.17.14,3.04,1.31,3.89,2.21.73.77,2.36,3.97,2.75,4.69.25.47,2.33,4.13,2.33,4.13-1.11.12-8.99.72-9.23.71-2.86-.05-4.36-1.26-5.1-2.19-.58-.73-.78-1.7-.43-2.56.75-1.86,3.28-1.65,3.28-1.65l.7-.03-.37-.63Z"/>
    <path class="st15" d="M20.63,131.21s1.04-2.27,3.01-2.06c.91.1,1.67.72,2.03,1.55.48,1.09,1.38,2.53-.5,5.59-1.35,2.19-4.29,6.47-5.07,7.75,0,0-4.97-7.67-5.3-8.7-.38-1.18-.99-2.5-.06-4.48.77-1.63,2.89-2.1,4.23-.91.04.04.08.08.13.12,0,0,.24.21.71,1.13l.33.82.48-.81Z"/>
  </g>
  <g>
    <path class="st40" d="M42.09,83.24s-.21,7.35-5.74,9.26v.36h13.76v-.52s-5.04-.08-5.64-9.11h-2.38Z"/>
    <polygon class="st37" points="49.76 78.81 54.36 83.29 51.97 80.39 45.42 82.99 43.36 85.78 42.08 84.21 37.38 80.07 30.34 85.47 34.79 80.61 32.85 74.48 29.91 71.92 32.8 69.71 36.56 65.36 30.81 58.66 36.11 62.87 40.86 60.96 43.34 58.37 45.16 60.33 49.56 63.41 56.33 58.41 50.77 65.6 52.16 68.22 56.81 71.92 54.94 73.1 49.76 78.81"/>
    <path class="st40" d="M44.62,84.09s4.4-4.98,11.92,1.76c0,0-5.97-7.35-1.94-12.3.11-.13.24-.3.34-.44,0,0-5.26,4.3-11.75-1.35,0,0,4.85,6.48,1.43,12.33Z"/>
    <path class="st40" d="M31.59,73.39s4.75,4.61-1.68,12.49c0,0,7.02-6.25,11.74-2.03.13.11.29.25.42.36,0,0-4.1-5.51,1.29-12.31,0,0-6.18,5.08-11.77,1.5Z"/>
    <path class="st40" d="M55.03,70.5s-4.75-4.61,1.68-12.49c0,0-7.02,6.25-11.74,2.03-.13-.11-.29-.25-.42-.36,0,0,4.1,5.51-1.29,12.31,0,0,6.18-5.08,11.77-1.5Z"/>
    <path class="st40" d="M42.05,59.72s-4.4,4.98-11.92-1.76c0,0,5.97,7.35,1.94,12.3-.11.13-.24.3-.34.44,0,0,5.26-4.3,11.75,1.35,0,0-4.85-6.48-1.43-12.33Z"/>
  </g>
  <g>
    <path class="st37" d="M152.02,135.06s-.21,7.36-5.75,9.28v.36h13.79v-.52s-5.05-.08-5.65-9.12h-2.38Z"/>
    <polygon class="st40" points="159.7 130.62 164.31 135.11 161.92 132.2 155.36 134.81 153.29 137.61 152 136.03 147.3 131.89 140.25 137.29 144.71 132.43 142.76 126.29 139.82 123.72 142.71 121.5 146.48 117.14 140.72 110.43 146.03 114.66 150.79 112.74 153.27 110.15 155.1 112.11 159.5 115.19 166.28 110.18 160.72 117.38 162.1 120.01 166.76 123.72 164.89 124.9 159.7 130.62"/>
    <path class="st37" d="M154.55,135.91s4.41-4.99,11.94,1.76c0,0-5.98-7.36-1.95-12.32.11-.13.24-.31.34-.44,0,0-5.26,4.3-11.77-1.35,0,0,4.86,6.49,1.43,12.35Z"/>
    <path class="st37" d="M141.5,125.19s4.76,4.62-1.68,12.51c0,0,7.03-6.27,11.76-2.04.13.11.29.25.42.36,0,0-4.11-5.52,1.29-12.33,0,0-6.19,5.09-11.79,1.5Z"/>
    <path class="st37" d="M164.98,122.3s-4.76-4.62,1.68-12.51c0,0-7.03,6.27-11.76,2.04-.13-.11-.29-.25-.42-.36,0,0,4.11,5.52-1.29,12.33,0,0,6.19-5.09,11.79-1.5Z"/>
    <path class="st37" d="M151.98,111.5s-4.41,4.99-11.94-1.76c0,0,5.98,7.36,1.95,12.32-.11.13-.24.31-.34.44,0,0,5.26-4.3,11.77,1.35,0,0-4.86-6.49-1.43-12.35Z"/>
  </g>
  <polygon class="st13" points="147.9 20.27 147.9 46.66 155.59 39.08 166.6 39.06 147.9 20.27"/>
  <g>
    <path class="st36" d="M26.93,12.57s-2.24,17.21-14.85,18.53c0,0,11.29,1.89,11.45,20.77,0,0,2.24-17.42,14.89-18.27,0,0-11.36-3.57-11.49-21.03Z"/>
    <path class="st27" d="M26.4,18.83s-1.53,11.73-10.12,12.63c0,0,7.7,1.29,7.8,14.15,0,0,1.53-11.87,10.15-12.45,0,0-7.74-2.43-7.83-14.33Z"/>
  </g>
  <g>
    <path class="st40" d="M78.97,110.33c-.04-.32.06-.52.14-.57.21-.13,6.49,9.52,7.81,11.55.16.24.23.53.2.81l-.05.52c-.06.64.37,1.23,1,1.37h0c.68.15,1.36-.27,1.52-.95v-.06c.16-.62-.17-1.25-.76-1.48l-.52-.2c-.24-.09-.44-.25-.58-.46-1.31-1.9-7.94-11.6-7.49-11.82.06-.03.42.1.96.4,3.3,1.8,14.25,8.19,14.25,8.19.53.3.89.82.98,1.42l.49,5.12c.05.47-.18.93-.57,1.19l-8.83,5.75c-.39.26-.9.28-1.31.05-1.48-.81-4.91-2.73-5.18-3.23-.88-1.61-.67-6.59-2.03-17.59Z"/>
    <rect class="st40" x="86.24" y="129.03" width="14.97" height="4.02" rx="1.54" ry="1.54" transform="translate(-56.3 72.33) rotate(-33.05)"/>
    <rect class="st40" x="91.01" y="133.13" width="12.18" height="6.18" rx="1.75" ry="1.75" transform="translate(-58.58 75.01) rotate(-33.05)"/>
  </g>
  <g>
    <path class="st24" d="M146.48,71.13l-1.09,13.3c-.14,1.72.06,2.43.96,2.51l-.1,1.16-10.5-.86.1-1.16c1.03.08,1.26-.59,1.4-2.27l1.06-12.87"/>
    <path class="st24" d="M138.31,70.95c.23-2.76-.19-3.53-1.26-3.61-1.16-.1-2,.62-2.29,4.15l-.99,12.01c-.14,1.72.06,2.43.96,2.51l-.1,1.16-10.5-.86.1-1.16c1.03.08,1.26-.59,1.4-2.27l1.06-12.87c.23-2.76-.19-3.53-1.26-3.61-1.16-.1-2,.66-2.3,4.28l-.98,11.92c-.14,1.68.06,2.39,1.05,2.47l-.1,1.16-11.32-.93.1-1.16c1.68.14,2.04-.53,2.18-2.25l1.34-16.32c.15-1.85-.19-2.44-2-2.59l.1-1.16,9.6.79c-.25,2.02-.4,3.82-.63,6.62l.34.03c1.04-5.85,3.21-6.93,6.74-6.64,3.75.31,4.82,2.04,4.54,7.57l.34.03c.94-5.64,3.08-6.94,6.79-6.64,4.26.35,5.67,2.72,5.27,7.58"/>
  </g>
  <g>
    <ellipse class="st21" cx="89.92" cy="33.64" rx="12.53" ry="8.4" transform="translate(15.83 94.69) rotate(-60)"/>
    <polyline class="st20" points="85.66 25.53 93.04 28.31 99.06 33.27 93.04 28.31 96.19 22.78"/>
  </g>
  <polygon class="st6" points="49.15 -507.18 -28 -507.18 -66.58 -440.36 -28 -373.54 49.15 -373.54 87.73 -440.36 49.15 -507.18"/>
</svg>