<?xml version="1.0" encoding="UTF-8"?>
<svg id="Layer_1" xmlns="http://www.w3.org/2000/svg" xmlns:xlink="http://www.w3.org/1999/xlink" version="1.1" viewBox="0 0 1134 1342.8">
  <!-- Generator: Adobe Illustrator 30.4.0, SVG Export Plug-In . SVG Version: 2.1.4 Build 226)  -->
  <defs>
    <style>
      .st0, .st1, .st2, .st3 {
        fill: #007479;
      }

      .st4, .st5 {
        fill: none;
      }

      .st6 {
        fill: #f1dcd3;
      }

      .st7 {
        stroke: #822721;
        stroke-width: .4px;
      }

      .st7, .st1, .st2, .st5, .st3, .st8, .st9 {
        stroke-miterlimit: 10;
      }

      .st7, .st10 {
        fill: #d6372e;
      }

      .st11 {
        fill: #edddd4;
      }

      .st1, .st2, .st5 {
        stroke: #213e3b;
      }

      .st1, .st5 {
        stroke-width: .41px;
      }

      .st2, .st3 {
        stroke-width: .34px;
      }

      .st12 {
        fill: url(#New_Pattern_2);
      }

      .st3 {
        stroke: #444343;
      }

      .st8 {
        stroke-width: .84px;
      }

      .st8, .st13, .st9 {
        fill: #822721;
      }

      .st8, .st9 {
        stroke: #d6372e;
      }

      .st9 {
        stroke-width: .67px;
      }

      .st14 {
        fill: #213e3b;
      }
    </style>
    <pattern id="New_Pattern_2" data-name="New Pattern 2" x="0" y="0" width="486" height="514.36" patternTransform="translate(222.24 236.12)" patternUnits="userSpaceOnUse" viewBox="0 0 486 514.36">
      <g>
        <rect class="st4" y="0" width="486" height="514.36"/>
        <g>
          <g id="cheery">
            <path class="st3" d="M271.5,494.27"/>
            <path class="st2" d="M270.92,500.34v-.1s.01-.08.01-.08v-.86s8.79,9.13,14.06,11.87l1.06-.03-.49-.82s-14.79-12.03-14.06-16.16l-.02.09c0-.09.01-.14.01-.14l-5.2-.05c3.8,1.78,1.17,31.73,1.17,31.73l.39.87.63-.86c.37-3.66,1.67-17.45,2.43-25.59"/>
            <path class="st9" d="M285.33,510.18c-.75-1.09-.78-1.57-.78-1.57,0-.04-.02-.07-.03-.11-.55-2.27,1.28-4.42,3.6-4.27,2.76.17,3.87,1.67,4.95,2.81.93.99,3,5.05,3.49,5.97.32.59,2.96,5.26,2.96,5.26-1.41.15-11.44.91-11.75.91-3.63-.07-5.55-1.6-6.49-2.79-.73-.92-.99-2.16-.55-3.26.96-2.37,4.18-2.1,4.18-2.1l.89-.04-.47-.8Z"/>
          </g>
          <g>
            <path class="st14" d="M277.98,432.71s-.25,8.72-6.81,10.99v.43h16.33v-.61s-5.99-.09-6.69-10.8h-2.82Z"/>
            <polygon class="st0" points="287.08 427.45 292.53 432.77 289.7 429.33 281.93 432.42 279.49 435.73 277.96 433.86 272.38 428.95 264.03 435.35 269.31 429.59 267 422.32 263.53 419.28 266.95 416.65 271.42 411.49 264.59 403.54 270.88 408.54 276.52 406.27 279.46 403.21 281.62 405.53 286.84 409.18 294.87 403.25 288.28 411.77 289.92 414.88 295.44 419.28 293.22 420.68 287.08 427.45"/>
            <path class="st14" d="M280.97,433.71s5.22-5.91,14.15,2.09c0,0-7.08-8.72-2.3-14.6.13-.16.29-.36.41-.53,0,0-6.24,5.1-13.94-1.6,0,0,5.75,7.69,1.69,14.63Z"/>
            <path class="st14" d="M265.52,421.02s5.64,5.47-1.99,14.82c0,0,8.32-7.42,13.93-2.41.15.13.35.3.5.42,0,0-4.87-6.53,1.53-14.61,0,0-7.34,6.03-13.97,1.77Z"/>
            <path class="st14" d="M293.32,417.59s-5.64-5.47,1.99-14.82c0,0-8.32,7.42-13.93,2.41-.15-.13-.35-.3-.5-.42,0,0,4.87,6.53-1.53,14.61,0,0,7.34-6.03,13.97-1.77Z"/>
            <path class="st14" d="M277.92,404.8s-5.22,5.91-14.15-2.09c0,0,7.08,8.72,2.3,14.6-.13.16-.29.36-.41.53,0,0,6.24-5.1,13.94,1.6,0,0-5.75-7.69-1.69-14.63Z"/>
          </g>
          <g>
            <path class="st10" d="M437.07,491.03s3.85,21.65-10.88,28.06c0,0,14.37-2.02,21.75,20.73,0,0-3.93-21.91,11.03-27.76,0,0-15.09.02-21.9-21.03Z"/>
            <path class="st6" d="M438.81,498.8s2.62,14.75-7.41,19.12c0,0,9.79-1.38,14.82,14.13,0,0-2.68-14.93,7.51-18.92,0,0-10.28.01-14.93-14.33Z"/>
          </g>
          <path class="st14" d="M343.61,500.51c-.05-.37.07-.61.16-.67.25-.15,7.64,11.21,9.19,13.6.18.28.27.62.23.96l-.06.62c-.07.76.43,1.44,1.17,1.61h0c.8.18,1.6-.32,1.79-1.12l.02-.07c.17-.73-.22-1.47-.91-1.75l-.61-.24c-.28-.11-.52-.3-.69-.55-1.54-2.24-9.35-13.66-8.81-13.92.07-.03.49.12,1.13.47,3.88,2.12,16.77,9.64,16.77,9.64.62.35,1.05.97,1.15,1.67l.58,6.03c.05.56-.21,1.1-.68,1.4l-10.4,6.76c-.46.3-1.05.33-1.54.06-1.74-.95-5.78-3.21-6.1-3.8-1.03-1.89-.79-7.76-2.4-20.71Z"/>
          <g>
            <path class="st13" d="M384.32,419.54l-1.31,16.03c-.17,2.08.07,2.93,1.16,3.02l-.12,1.4-12.66-1.04.12-1.4c1.24.1,1.52-.71,1.69-2.73l1.28-15.51"/>
            <path class="st13" d="M384.32,419.56c.48-5.86-1.22-8.72-6.35-9.14-4.46-.37-7.04,1.2-8.18,8l-.41-.03c.34-6.66-.95-8.75-5.47-9.12-4.25-.35-6.87.95-8.13,8l-.41-.03c.28-3.37.46-5.55.76-7.98l-11.57-.95-.12,1.4c2.18.18,2.59.89,2.41,3.12l-1.62,19.66c-.17,2.08-.6,2.88-2.63,2.71l-.12,1.4,13.64,1.12.12-1.4c-1.19-.1-1.44-.95-1.27-2.98l1.18-14.37c.36-4.36,1.37-5.27,2.77-5.15,1.3.11,1.79,1.04,1.52,4.36l-1.28,15.51c-.17,2.02-.44,2.84-1.69,2.73l-.12,1.4,12.66,1.04.12-1.4c-1.09-.09-1.33-.95-1.16-3.02l1.19-14.47c.35-4.25,1.36-5.11,2.76-5,1.3.11,1.8,1.04,1.52,4.36"/>
          </g>
          <g>
            <ellipse class="st1" cx="451.72" cy="423.04" rx="10.85" ry="16.19" transform="translate(-151 282.53) rotate(-30)"/>
            <polyline class="st5" points="446.22 412.58 455.75 416.17 463.53 422.57 455.75 416.17 459.81 409.02"/>
          </g>
        </g>
        <g>
          <g id="cheery1" data-name="cheery">
            <path class="st3" d="M28.5,494.27"/>
            <path class="st2" d="M27.92,500.34v-.1s.01-.08.01-.08v-.86s8.79,9.13,14.06,11.87l1.06-.03-.49-.82s-14.79-12.03-14.06-16.16l-.02.09c0-.09.01-.14.01-.14l-5.2-.05c3.8,1.78,1.17,31.73,1.17,31.73l.39.87.63-.86c.37-3.66,1.67-17.45,2.43-25.59"/>
            <path class="st9" d="M42.33,510.18c-.75-1.09-.78-1.57-.78-1.57,0-.04-.02-.07-.03-.11-.55-2.27,1.28-4.42,3.6-4.27,2.76.17,3.87,1.67,4.95,2.81.93.99,3,5.05,3.49,5.97.32.59,2.96,5.26,2.96,5.26-1.41.15-11.44.91-11.75.91-3.63-.07-5.55-1.6-6.49-2.79-.73-.92-.99-2.16-.55-3.26.96-2.37,4.18-2.1,4.18-2.1l.89-.04-.47-.8Z"/>
          </g>
          <g>
            <path class="st14" d="M34.98,432.71s-.25,8.72-6.81,10.99v.43h16.33v-.61s-5.99-.09-6.69-10.8h-2.82Z"/>
            <polygon class="st0" points="44.08 427.45 49.53 432.77 46.7 429.33 38.93 432.42 36.49 435.73 34.96 433.86 29.38 428.95 21.03 435.35 26.31 429.59 24 422.32 20.53 419.28 23.95 416.65 28.42 411.49 21.59 403.54 27.88 408.54 33.52 406.27 36.46 403.21 38.62 405.53 43.84 409.18 51.87 403.25 45.28 411.77 46.92 414.88 52.44 419.28 50.22 420.68 44.08 427.45"/>
            <path class="st14" d="M37.97,433.71s5.22-5.91,14.15,2.09c0,0-7.08-8.72-2.3-14.6.13-.16.29-.36.41-.53,0,0-6.24,5.1-13.94-1.6,0,0,5.75,7.69,1.69,14.63Z"/>
            <path class="st14" d="M22.52,421.02s5.64,5.47-1.99,14.82c0,0,8.32-7.42,13.93-2.41.15.13.35.3.5.42,0,0-4.87-6.53,1.53-14.61,0,0-7.34,6.03-13.97,1.77Z"/>
            <path class="st14" d="M50.32,417.59s-5.64-5.47,1.99-14.82c0,0-8.32,7.42-13.93,2.41-.15-.13-.35-.3-.5-.42,0,0,4.87,6.53-1.53,14.61,0,0,7.34-6.03,13.97-1.77Z"/>
            <path class="st14" d="M34.92,404.8s-5.22,5.91-14.15-2.09c0,0,7.08,8.72,2.3,14.6-.13.16-.29.36-.41.53,0,0,6.24-5.1,13.94,1.6,0,0-5.75-7.69-1.69-14.63Z"/>
          </g>
          <g>
            <path class="st10" d="M194.07,491.03s3.85,21.65-10.88,28.06c0,0,14.37-2.02,21.75,20.73,0,0-3.93-21.91,11.03-27.76,0,0-15.09.02-21.9-21.03Z"/>
            <path class="st6" d="M195.81,498.8s2.62,14.75-7.41,19.12c0,0,9.79-1.38,14.82,14.13,0,0-2.68-14.93,7.51-18.92,0,0-10.28.01-14.93-14.33Z"/>
          </g>
          <path class="st14" d="M100.61,500.51c-.05-.37.07-.61.16-.67.25-.15,7.64,11.21,9.19,13.6.18.28.27.62.23.96l-.06.62c-.07.76.43,1.44,1.17,1.61h0c.8.18,1.6-.32,1.79-1.12l.02-.07c.17-.73-.22-1.47-.91-1.75l-.61-.24c-.28-.11-.52-.3-.69-.55-1.54-2.24-9.35-13.66-8.81-13.92.07-.03.49.12,1.13.47,3.88,2.12,16.77,9.64,16.77,9.64.62.35,1.05.97,1.15,1.67l.58,6.03c.05.56-.21,1.1-.68,1.4l-10.4,6.76c-.46.3-1.05.33-1.54.06-1.74-.95-5.78-3.21-6.1-3.8-1.03-1.89-.79-7.76-2.4-20.71Z"/>
          <g>
            <path class="st13" d="M141.32,419.54l-1.31,16.03c-.17,2.08.07,2.93,1.16,3.02l-.12,1.4-12.66-1.04.12-1.4c1.24.1,1.52-.71,1.69-2.73l1.28-15.51"/>
            <path class="st13" d="M141.32,419.56c.48-5.86-1.22-8.72-6.35-9.14-4.46-.37-7.04,1.2-8.18,8l-.41-.03c.34-6.66-.95-8.75-5.47-9.12-4.25-.35-6.87.95-8.13,8l-.41-.03c.28-3.37.46-5.55.76-7.98l-11.57-.95-.12,1.4c2.18.18,2.59.89,2.41,3.12l-1.62,19.66c-.17,2.08-.6,2.88-2.63,2.71l-.12,1.4,13.64,1.12.12-1.4c-1.19-.1-1.44-.95-1.27-2.98l1.18-14.37c.36-4.36,1.37-5.27,2.77-5.15,1.3.11,1.79,1.04,1.52,4.36l-1.28,15.51c-.17,2.02-.44,2.84-1.69,2.73l-.12,1.4,12.66,1.04.12-1.4c-1.09-.09-1.33-.95-1.16-3.02l1.19-14.47c.35-4.25,1.36-5.11,2.76-5,1.3.11,1.8,1.04,1.52,4.36"/>
          </g>
          <g>
            <ellipse class="st1" cx="208.72" cy="423.04" rx="10.85" ry="16.19" transform="translate(-183.56 161.03) rotate(-30)"/>
            <polyline class="st5" points="203.22 412.58 212.75 416.17 220.53 422.57 212.75 416.17 216.81 409.02"/>
          </g>
        </g>
        <g>
          <g id="cheery2" data-name="cheery">
            <path class="st3" d="M393,237.09"/>
            <path class="st2" d="M392.42,243.16v-.1s.01-.08.01-.08v-.86s8.79,9.13,14.06,11.87l1.06-.03-.49-.82s-14.79-12.03-14.06-16.16l-.02.09c0-.09.01-.14.01-.14l-5.2-.05c3.8,1.78,1.17,31.73,1.17,31.73l.39.87.63-.86c.37-3.66,1.67-17.45,2.43-25.59"/>
            <path class="st9" d="M406.83,253c-.75-1.09-.78-1.57-.78-1.57,0-.04-.02-.07-.03-.11-.55-2.27,1.28-4.42,3.6-4.27,2.76.17,3.87,1.67,4.95,2.81.93.99,3,5.05,3.49,5.97.32.59,2.96,5.26,2.96,5.26-1.41.15-11.44.91-11.75.91-3.63-.07-5.55-1.6-6.49-2.79-.73-.92-.99-2.16-.55-3.26.96-2.37,4.18-2.1,4.18-2.1l.89-.04-.47-.8Z"/>
            <path class="st8" d="M390,268.65s1.32-2.89,3.83-2.62c1.15.12,2.12.91,2.59,1.97.6,1.38,1.76,3.22-.64,7.11-1.72,2.79-5.46,8.24-6.44,9.86,0,0-6.32-9.76-6.74-11.06-.48-1.5-1.26-3.19-.07-5.7.98-2.07,3.67-2.68,5.39-1.16.05.05.11.1.16.15,0,0,.31.26.9,1.44l.41,1.04.61-1.03Z"/>
          </g>
          <g>
            <path class="st14" d="M399.48,175.53s-.25,8.72-6.81,10.99v.43h16.33v-.61s-5.99-.09-6.69-10.8h-2.82Z"/>
            <polygon class="st0" points="408.58 170.27 414.03 175.59 411.2 172.15 403.43 175.24 400.99 178.55 399.46 176.68 393.88 171.77 385.53 178.18 390.81 172.41 388.5 165.14 385.03 162.1 388.45 159.47 392.92 154.31 386.09 146.36 392.38 151.36 398.02 149.09 400.96 146.03 403.12 148.35 408.34 152 416.37 146.07 409.78 154.6 411.42 157.7 416.94 162.1 414.72 163.5 408.58 170.27"/>
            <path class="st14" d="M402.47,176.54s5.22-5.91,14.15,2.09c0,0-7.08-8.72-2.3-14.6.13-.16.29-.36.41-.53,0,0-6.24,5.1-13.94-1.6,0,0,5.75,7.69,1.69,14.63Z"/>
            <path class="st14" d="M387.02,163.85s5.64,5.47-1.99,14.82c0,0,8.32-7.42,13.93-2.41.15.13.35.3.5.42,0,0-4.87-6.53,1.53-14.61,0,0-7.34,6.03-13.97,1.77Z"/>
            <path class="st14" d="M414.82,160.41s-5.64-5.47,1.99-14.82c0,0-8.32,7.42-13.93,2.41-.15-.13-.35-.3-.5-.42,0,0,4.87,6.53-1.53,14.61,0,0,7.34-6.03,13.97-1.77Z"/>
            <path class="st14" d="M399.42,147.62s-5.22,5.91-14.15-2.09c0,0,7.08,8.72,2.3,14.6-.13.16-.29.36-.41.53,0,0,6.24-5.1,13.94,1.6,0,0-5.75-7.69-1.69-14.63Z"/>
          </g>
          <g>
            <path class="st0" d="M404.29,361.64s-.26,9.19-7.18,11.58v.45h17.21v-.65s-6.31-.1-7.05-11.38h-2.98Z"/>
            <polygon class="st14" points="413.88 356.1 419.62 361.7 416.64 358.08 408.45 361.33 405.88 364.82 404.27 362.85 398.39 357.68 389.59 364.43 395.16 358.36 392.73 350.69 389.06 347.49 392.67 344.72 397.37 339.28 390.18 330.91 396.81 336.18 402.75 333.78 405.85 330.55 408.13 333 413.62 336.85 422.08 330.6 415.14 339.58 416.87 342.86 422.69 347.49 420.35 348.97 413.88 356.1"/>
            <path class="st0" d="M407.45,362.7s5.5-6.22,14.91,2.2c0,0-7.46-9.19-2.43-15.38.13-.17.3-.38.43-.55,0,0-6.57,5.37-14.69-1.69,0,0,6.06,8.1,1.78,15.42Z"/>
            <path class="st0" d="M391.16,349.33s5.94,5.77-2.1,15.62c0,0,8.77-7.82,14.68-2.54.16.14.36.31.53.45,0,0-5.13-6.88,1.61-15.39,0,0-7.73,6.35-14.71,1.87Z"/>
            <path class="st0" d="M420.46,345.71s-5.94-5.77,2.1-15.62c0,0-8.77,7.82-14.68,2.54-.16-.14-.36-.31-.53-.45,0,0,5.13,6.88-1.61,15.39,0,0,7.73-6.35,14.71-1.87Z"/>
            <path class="st0" d="M404.23,332.23s-5.5,6.22-14.91-2.2c0,0,7.46,9.19,2.43,15.38-.13.17-.3.38-.43.55,0,0,6.57-5.37,14.69,1.69,0,0-6.06-8.1-1.78-15.42Z"/>
          </g>
          <polygon class="st7" points="484.43 321.93 484.43 362.39 496.22 350.77 513.11 350.74 484.43 321.93"/>
          <g>
            <path class="st14" d="M465.11,243.33c-.05-.37.07-.61.16-.67.25-.15,7.64,11.21,9.19,13.6.18.28.27.62.23.96l-.06.62c-.07.76.43,1.44,1.17,1.61h0c.8.18,1.6-.32,1.79-1.12l.02-.07c.17-.73-.22-1.47-.91-1.75l-.61-.24c-.28-.11-.52-.3-.69-.55-1.54-2.24-9.35-13.66-8.81-13.92.07-.03.49.12,1.13.47,3.88,2.12,16.77,9.64,16.77,9.64.62.35,1.05.97,1.15,1.67l.58,6.03c.05.56-.21,1.1-.68,1.4l-10.4,6.76c-.46.3-1.05.33-1.54.06-1.74-.95-5.78-3.21-6.1-3.8-1.03-1.89-.79-7.76-2.4-20.71Z"/>
            <path class="st14" d="M489.65,265.87l-11.73,7.63c-.84.55-1.96.31-2.51-.53l-.6-.93c-.55-.84-.31-1.96.53-2.51l11.73-7.63c.84-.55,1.96-.31,2.51.53l.6.93c.55.84.31,1.96-.53,2.51Z"/>
            <path class="st14" d="M492.73,274.07l-8.57,5.58c-.95.62-2.23.35-2.85-.6l-1.72-2.64c-.62-.95-.35-2.23.6-2.85l8.57-5.58c.95-.62,2.23-.35,2.85.6l1.72,2.64c.62.95.35,2.23-.6,2.85Z"/>
          </g>
          <path class="st13" d="M505.82,162.38c.48-5.86-1.22-8.72-6.35-9.14-4.46-.37-7.04,1.2-8.18,8l-.41-.03c.34-6.66-.95-8.75-5.47-9.12-4.25-.35-6.87.95-8.13,8l-.41-.03c.28-3.37.46-5.55.76-7.98l-11.57-.95-.12,1.4c2.18.18,2.59.89,2.41,3.12l-1.62,19.66c-.17,2.08-.6,2.88-2.63,2.71l-.12,1.4,13.64,1.12.12-1.4c-1.19-.1-1.44-.95-1.27-2.98l1.18-14.37c.36-4.36,1.37-5.27,2.77-5.15,1.3.11,1.79,1.04,1.52,4.36l-1.28,15.51c-.17,2.02-.44,2.84-1.69,2.73l-.12,1.4,12.66,1.04.12-1.4c-1.09-.09-1.33-.95-1.16-3.02l1.19-14.47c.35-4.25,1.36-5.11,2.76-5,1.3.11,1.8,1.04,1.52,4.36"/>
        </g>
        <g>
          <g id="cheery3" data-name="cheery">
            <path class="st3" d="M150,237.09"/>
            <path class="st2" d="M149.42,243.16v-.1s.01-.08.01-.08v-.86s8.79,9.13,14.06,11.87l1.06-.03-.49-.82s-14.79-12.03-14.06-16.16l-.02.09c0-.09.01-.14.01-.14l-5.2-.05c3.8,1.78,1.17,31.73,1.17,31.73l.39.87.63-.86c.37-3.66,1.67-17.45,2.43-25.59"/>
            <path class="st9" d="M163.83,253c-.75-1.09-.78-1.57-.78-1.57,0-.04-.02-.07-.03-.11-.55-2.27,1.28-4.42,3.6-4.27,2.76.17,3.87,1.67,4.95,2.81.93.99,3,5.05,3.49,5.97.32.59,2.96,5.26,2.96,5.26-1.41.15-11.44.91-11.75.91-3.63-.07-5.55-1.6-6.49-2.79-.73-.92-.99-2.16-.55-3.26.96-2.37,4.18-2.1,4.18-2.1l.89-.04-.47-.8Z"/>
            <path class="st8" d="M147,268.65s1.32-2.89,3.83-2.62c1.15.12,2.12.91,2.59,1.97.6,1.38,1.76,3.22-.64,7.11-1.72,2.79-5.46,8.24-6.44,9.86,0,0-6.32-9.76-6.74-11.06-.48-1.5-1.26-3.19-.07-5.7.98-2.07,3.67-2.68,5.39-1.16.05.05.11.1.16.15,0,0,.31.26.9,1.44l.41,1.04.61-1.03Z"/>
          </g>
          <g>
            <path class="st14" d="M156.48,175.53s-.25,8.72-6.81,10.99v.43h16.33v-.61s-5.99-.09-6.69-10.8h-2.82Z"/>
            <polygon class="st0" points="165.58 170.27 171.03 175.59 168.2 172.15 160.43 175.24 157.99 178.55 156.46 176.68 150.88 171.77 142.53 178.18 147.81 172.41 145.5 165.14 142.03 162.1 145.45 159.47 149.92 154.31 143.09 146.36 149.38 151.36 155.02 149.09 157.96 146.03 160.12 148.35 165.34 152 173.37 146.07 166.78 154.6 168.42 157.7 173.94 162.1 171.72 163.5 165.58 170.27"/>
            <path class="st14" d="M159.47,176.54s5.22-5.91,14.15,2.09c0,0-7.08-8.72-2.3-14.6.13-.16.29-.36.41-.53,0,0-6.24,5.1-13.94-1.6,0,0,5.75,7.69,1.69,14.63Z"/>
            <path class="st14" d="M144.02,163.85s5.64,5.47-1.99,14.82c0,0,8.32-7.42,13.93-2.41.15.13.35.3.5.42,0,0-4.87-6.53,1.53-14.61,0,0-7.34,6.03-13.97,1.77Z"/>
            <path class="st14" d="M171.82,160.41s-5.64-5.47,1.99-14.82c0,0-8.32,7.42-13.93,2.41-.15-.13-.35-.3-.5-.42,0,0,4.87,6.53-1.53,14.61,0,0,7.34-6.03,13.97-1.77Z"/>
            <path class="st14" d="M156.42,147.62s-5.22,5.91-14.15-2.09c0,0,7.08,8.72,2.3,14.6-.13.16-.29.36-.41.53,0,0,6.24-5.1,13.94,1.6,0,0-5.75-7.69-1.69-14.63Z"/>
          </g>
          <g>
            <path class="st0" d="M161.29,361.64s-.26,9.19-7.18,11.58v.45h17.21v-.65s-6.31-.1-7.05-11.38h-2.98Z"/>
            <polygon class="st14" points="170.88 356.1 176.62 361.7 173.64 358.08 165.45 361.33 162.88 364.82 161.27 362.85 155.39 357.68 146.59 364.43 152.16 358.36 149.73 350.69 146.06 347.49 149.67 344.72 154.37 339.28 147.18 330.91 153.81 336.18 159.75 333.78 162.85 330.55 165.13 333 170.62 336.85 179.08 330.6 172.14 339.58 173.87 342.86 179.69 347.49 177.35 348.97 170.88 356.1"/>
            <path class="st0" d="M164.45,362.7s5.5-6.22,14.91,2.2c0,0-7.46-9.19-2.43-15.38.13-.17.3-.38.43-.55,0,0-6.57,5.37-14.69-1.69,0,0,6.06,8.1,1.78,15.42Z"/>
            <path class="st0" d="M148.16,349.33s5.94,5.77-2.1,15.62c0,0,8.77-7.82,14.68-2.54.16.14.36.31.53.45,0,0-5.13-6.88,1.61-15.39,0,0-7.73,6.35-14.71,1.87Z"/>
            <path class="st0" d="M177.46,345.71s-5.94-5.77,2.1-15.62c0,0-8.77,7.82-14.68,2.54-.16-.14-.36-.31-.53-.45,0,0,5.13,6.88-1.61,15.39,0,0,7.73-6.35,14.71-1.87Z"/>
            <path class="st0" d="M161.23,332.23s-5.5,6.22-14.91-2.2c0,0,7.46,9.19,2.43,15.38-.13.17-.3.38-.43.55,0,0,6.57-5.37,14.69,1.69,0,0-6.06-8.1-1.78-15.42Z"/>
          </g>
          <polygon class="st7" points="241.43 321.93 241.43 362.39 253.22 350.77 270.11 350.74 241.43 321.93"/>
          <g>
            <path class="st10" d="M315.57,233.85s3.85,21.65-10.88,28.06c0,0,14.37-2.02,21.75,20.73,0,0-3.93-21.91,11.03-27.76,0,0-15.09.02-21.9-21.03Z"/>
            <path class="st6" d="M317.31,241.62s2.62,14.75-7.41,19.12c0,0,9.79-1.38,14.82,14.13,0,0-2.68-14.93,7.51-18.92,0,0-10.28.01-14.93-14.33Z"/>
          </g>
          <g>
            <path class="st14" d="M222.11,243.33c-.05-.37.07-.61.16-.67.25-.15,7.64,11.21,9.19,13.6.18.28.27.62.23.96l-.06.62c-.07.76.43,1.44,1.17,1.61h0c.8.18,1.6-.32,1.79-1.12l.02-.07c.17-.73-.22-1.47-.91-1.75l-.61-.24c-.28-.11-.52-.3-.69-.55-1.54-2.24-9.35-13.66-8.81-13.92.07-.03.49.12,1.13.47,3.88,2.12,16.77,9.64,16.77,9.64.62.35,1.05.97,1.15,1.67l.58,6.03c.05.56-.21,1.1-.68,1.4l-10.4,6.76c-.46.3-1.05.33-1.54.06-1.74-.95-5.78-3.21-6.1-3.8-1.03-1.89-.79-7.76-2.4-20.71Z"/>
            <path class="st14" d="M246.65,265.87l-11.73,7.63c-.84.55-1.96.31-2.51-.53l-.6-.93c-.55-.84-.31-1.96.53-2.51l11.73-7.63c.84-.55,1.96-.31,2.51.53l.6.93c.55.84.31,1.96-.53,2.51Z"/>
            <path class="st14" d="M249.73,274.07l-8.57,5.58c-.95.62-2.23.35-2.85-.6l-1.72-2.64c-.62-.95-.35-2.23.6-2.85l8.57-5.58c.95-.62,2.23-.35,2.85.6l1.72,2.64c.62.95.35,2.23-.6,2.85Z"/>
          </g>
          <g>
            <path class="st13" d="M262.82,162.36l-1.31,16.03c-.17,2.08.07,2.93,1.16,3.02l-.12,1.4-12.66-1.04.12-1.4c1.24.1,1.52-.71,1.69-2.73l1.28-15.51"/>
            <path class="st13" d="M262.82,162.38c.48-5.86-1.22-8.72-6.35-9.14-4.46-.37-7.04,1.2-8.18,8l-.41-.03c.34-6.66-.95-8.75-5.47-9.12-4.25-.35-6.87.95-8.13,8l-.41-.03c.28-3.37.46-5.55.76-7.98l-11.57-.95-.12,1.4c2.18.18,2.59.89,2.41,3.12l-1.62,19.66c-.17,2.08-.6,2.88-2.63,2.71l-.12,1.4,13.64,1.12.12-1.4c-1.19-.1-1.44-.95-1.27-2.98l1.18-14.37c.36-4.36,1.37-5.27,2.77-5.15,1.3.11,1.79,1.04,1.52,4.36l-1.28,15.51c-.17,2.02-.44,2.84-1.69,2.73l-.12,1.4,12.66,1.04.12-1.4c-1.09-.09-1.33-.95-1.16-3.02l1.19-14.47c.35-4.25,1.36-5.11,2.76-5,1.3.11,1.8,1.04,1.52,4.36"/>
          </g>
          <g>
            <ellipse class="st1" cx="333.36" cy="347.21" rx="10.85" ry="16.19" transform="translate(-128.94 213.2) rotate(-30)"/>
            <polyline class="st5" points="327.86 336.74 337.39 340.34 345.17 346.74 337.39 340.34 341.46 333.19"/>
          </g>
          <g>
            <ellipse class="st1" cx="330.22" cy="165.86" rx="10.85" ry="16.19" transform="translate(-38.69 187.33) rotate(-30)"/>
            <polyline class="st5" points="324.72 155.4 334.25 158.99 342.03 165.39 334.25 158.99 338.31 151.84"/>
          </g>
        </g>
        <g>
          <polygon class="st7" points="-1.57 321.93 -1.57 362.39 10.22 350.77 27.11 350.74 -1.57 321.93"/>
          <g>
            <path class="st10" d="M72.57,233.85s3.85,21.65-10.88,28.06c0,0,14.37-2.02,21.75,20.73,0,0-3.93-21.91,11.03-27.76,0,0-15.09.02-21.9-21.03Z"/>
            <path class="st6" d="M74.31,241.62s2.62,14.75-7.41,19.12c0,0,9.79-1.38,14.82,14.13,0,0-2.68-14.93,7.51-18.92,0,0-10.28.01-14.93-14.33Z"/>
          </g>
          <g>
            <path class="st14" d="M-20.89,243.33c-.05-.37.07-.61.16-.67.25-.15,7.64,11.21,9.19,13.6.18.28.27.62.23.96l-.06.62c-.07.76.43,1.44,1.17,1.61h0c.8.18,1.6-.32,1.79-1.12l.02-.07c.17-.73-.22-1.47-.91-1.75l-.61-.24c-.28-.11-.52-.3-.69-.55-1.54-2.24-9.35-13.66-8.81-13.92.07-.03.49.12,1.13.47,3.88,2.12,16.77,9.64,16.77,9.64.62.35,1.05.97,1.15,1.67l.58,6.03c.05.56-.21,1.1-.68,1.4l-10.4,6.76c-.46.3-1.05.33-1.54.06-1.74-.95-5.78-3.21-6.1-3.8-1.03-1.89-.79-7.76-2.4-20.71Z"/>
            <path class="st14" d="M3.65,265.87l-11.73,7.63c-.84.55-1.96.31-2.51-.53l-.6-.93c-.55-.84-.31-1.96.53-2.51l11.73-7.63c.84-.55,1.96-.31,2.51.53l.6.93c.55.84.31,1.96-.53,2.51Z"/>
            <path class="st14" d="M6.73,274.07l-8.57,5.58c-.95.62-2.23.35-2.85-.6l-1.72-2.64c-.62-.95-.35-2.23.6-2.85l8.57-5.58c.95-.62,2.23-.35,2.85.6l1.72,2.64c.62.95.35,2.23-.6,2.85Z"/>
          </g>
          <g>
            <path class="st13" d="M19.82,162.36l-1.31,16.03c-.17,2.08.07,2.93,1.16,3.02l-.12,1.4-12.66-1.04.12-1.4c1.24.1,1.52-.71,1.69-2.73l1.28-15.51"/>
            <path class="st13" d="M19.82,162.38c.48-5.86-1.22-8.72-6.35-9.14-4.46-.37-7.04,1.2-8.18,8l-.41-.03c.34-6.66-.95-8.75-5.47-9.12-4.25-.35-6.87.95-8.13,8l-.41-.03c.28-3.37.46-5.55.76-7.98l-11.57-.95-.12,1.4c2.18.18,2.59.89,2.41,3.12l-1.62,19.66c-.17,2.08-.6,2.88-2.63,2.71l-.12,1.4,13.64,1.12.12-1.4c-1.19-.1-1.44-.95-1.27-2.98l1.18-14.37c.36-4.36,1.37-5.27,2.77-5.15,1.3.11,1.79,1.04,1.52,4.36l-1.28,15.51c-.17,2.02-.44,2.84-1.69,2.73l-.12,1.4,12.66,1.04.12-1.4c-1.09-.09-1.33-.95-1.16-3.02l1.19-14.47c.35-4.25,1.36-5.11,2.76-5,1.3.11,1.8,1.04,1.52,4.36"/>
          </g>
          <g>
            <ellipse class="st1" cx="90.36" cy="347.21" rx="10.85" ry="16.19" transform="translate(-161.5 91.7) rotate(-30)"/>
            <polyline class="st5" points="84.86 336.74 94.39 340.34 102.17 346.74 94.39 340.34 98.46 333.19"/>
          </g>
          <g>
            <ellipse class="st1" cx="87.22" cy="165.86" rx="10.85" ry="16.19" transform="translate(-71.25 65.83) rotate(-30)"/>
            <polyline class="st5" points="81.72 155.4 91.25 158.99 99.03 165.39 91.25 158.99 95.31 151.84"/>
          </g>
        </g>
        <g>
          <g id="cheery4" data-name="cheery">
            <path class="st2" d="M270.92-14.02v-.1s.01-.08.01-.08v-.86s8.79,9.13,14.06,11.87l1.06-.03-.49-.82s-14.79-12.03-14.06-16.16l-.02.09c0-.09.01-.14.01-.14l-5.2-.05c3.8,1.78,1.17,31.73,1.17,31.73l.39.87.63-.86c.37-3.66,1.67-17.45,2.43-25.59"/>
            <path class="st9" d="M285.33-4.18c-.75-1.09-.78-1.57-.78-1.57,0-.04-.02-.07-.03-.11-.55-2.27,1.28-4.42,3.6-4.27,2.76.17,3.87,1.67,4.95,2.81.93.99,3,5.05,3.49,5.97.32.59,2.96,5.26,2.96,5.26-1.41.15-11.44.91-11.75.91-3.63-.07-5.55-1.6-6.49-2.79-.73-.92-.99-2.16-.55-3.26.96-2.37,4.18-2.1,4.18-2.1l.89-.04-.47-.8Z"/>
            <path class="st8" d="M268.5,11.47s1.32-2.89,3.83-2.62c1.15.12,2.12.91,2.59,1.97.6,1.38,1.76,3.22-.64,7.11-1.72,2.79-5.46,8.24-6.44,9.86,0,0-6.32-9.76-6.74-11.06-.48-1.5-1.26-3.19-.07-5.7.98-2.07,3.67-2.68,5.39-1.16.05.05.11.1.16.15,0,0,.31.26.9,1.44l.41,1.04.61-1.03Z"/>
          </g>
          <g>
            <path class="st0" d="M282.79,104.46s-.26,9.19-7.18,11.58v.45h17.21v-.65s-6.31-.1-7.05-11.38h-2.98Z"/>
            <polygon class="st14" points="292.38 98.92 298.12 104.53 295.14 100.9 286.95 104.15 284.38 107.64 282.77 105.67 276.89 100.5 268.09 107.25 273.66 101.18 271.23 93.52 267.56 90.31 271.17 87.54 275.87 82.1 268.68 73.73 275.31 79 281.25 76.6 284.35 73.37 286.63 75.82 292.12 79.67 300.58 73.42 293.64 82.4 295.37 85.68 301.19 90.31 298.85 91.79 292.38 98.92"/>
            <path class="st0" d="M285.95,105.52s5.5-6.22,14.91,2.2c0,0-7.46-9.19-2.43-15.38.13-.17.3-.38.43-.55,0,0-6.57,5.37-14.69-1.69,0,0,6.06,8.1,1.78,15.42Z"/>
            <path class="st0" d="M269.66,92.15s5.94,5.77-2.1,15.62c0,0,8.77-7.82,14.68-2.54.16.14.36.31.53.45,0,0-5.13-6.88,1.61-15.39,0,0-7.73,6.35-14.71,1.87Z"/>
            <path class="st0" d="M298.96,88.53s-5.94-5.77,2.1-15.62c0,0-8.77,7.82-14.68,2.54-.16-.14-.36-.31-.53-.45,0,0,5.13,6.88-1.61,15.39,0,0,7.73-6.35,14.71-1.87Z"/>
            <path class="st0" d="M282.73,75.06s-5.5,6.22-14.91-2.2c0,0,7.46,9.19,2.43,15.38-.13.17-.3.38-.43.55,0,0,6.57-5.37,14.69,1.69,0,0-6.06-8.1-1.78-15.42Z"/>
          </g>
          <polygon class="st7" points="362.93 64.76 362.93 105.21 374.72 93.59 391.61 93.56 362.93 64.76"/>
          <g>
            <path class="st10" d="M437.07-23.33s3.85,21.65-10.88,28.06c0,0,14.37-2.02,21.75,20.73,0,0-3.93-21.91,11.03-27.76,0,0-15.09.02-21.9-21.03Z"/>
            <path class="st6" d="M438.81-15.56s2.62,14.75-7.41,19.12c0,0,9.79-1.38,14.82,14.13,0,0-2.68-14.93,7.51-18.92,0,0-10.28.01-14.93-14.33Z"/>
          </g>
          <g>
            <path class="st14" d="M343.61-13.85c-.05-.37.07-.61.16-.67.25-.15,7.64,11.21,9.19,13.6.18.28.27.62.23.96l-.06.62c-.07.76.43,1.44,1.17,1.61h0c.8.18,1.6-.32,1.79-1.12l.02-.07c.17-.73-.22-1.47-.91-1.75l-.61-.24c-.28-.11-.52-.3-.69-.55-1.54-2.24-9.35-13.66-8.81-13.92.07-.03.49.12,1.13.47,3.88,2.12,16.77,9.64,16.77,9.64.62.35,1.05.97,1.15,1.67l.58,6.03c.05.56-.21,1.1-.68,1.4l-10.4,6.76c-.46.3-1.05.33-1.54.06-1.74-.95-5.78-3.21-6.1-3.8-1.03-1.89-.79-7.76-2.4-20.71Z"/>
            <path class="st14" d="M368.15,8.69l-11.73,7.63c-.84.55-1.96.31-2.51-.53l-.6-.93c-.55-.84-.31-1.96.53-2.51l11.73-7.63c.84-.55,1.96-.31,2.51.53l.6.93c.55.84.31,1.96-.53,2.51Z"/>
            <path class="st14" d="M371.23,16.89l-8.57,5.58c-.95.62-2.23.35-2.85-.6l-1.72-2.64c-.62-.95-.35-2.23.6-2.85l8.57-5.58c.95-.62,2.23-.35,2.85.6l1.72,2.64c.62.95.35,2.23-.6,2.85Z"/>
          </g>
          <g>
            <ellipse class="st1" cx="454.86" cy="90.03" rx="10.85" ry="16.19" transform="translate(15.92 239.49) rotate(-30)"/>
            <polyline class="st5" points="449.36 79.56 458.89 83.16 466.67 89.56 458.89 83.16 462.96 76.01"/>
          </g>
        </g>
        <g>
          <g id="cheery5" data-name="cheery">
            <path class="st2" d="M27.92-14.02v-.1s.01-.08.01-.08v-.86s8.79,9.13,14.06,11.87l1.06-.03-.49-.82s-14.79-12.03-14.06-16.16l-.02.09c0-.09.01-.14.01-.14l-5.2-.05c3.8,1.78,1.17,31.73,1.17,31.73l.39.87.63-.86c.37-3.66,1.67-17.45,2.43-25.59"/>
            <path class="st9" d="M42.33-4.18c-.75-1.09-.78-1.57-.78-1.57,0-.04-.02-.07-.03-.11-.55-2.27,1.28-4.42,3.6-4.27,2.76.17,3.87,1.67,4.95,2.81.93.99,3,5.05,3.49,5.97.32.59,2.96,5.26,2.96,5.26-1.41.15-11.44.91-11.75.91-3.63-.07-5.55-1.6-6.49-2.79-.73-.92-.99-2.16-.55-3.26.96-2.37,4.18-2.1,4.18-2.1l.89-.04-.47-.8Z"/>
            <path class="st8" d="M25.5,11.47s1.32-2.89,3.83-2.62c1.15.12,2.12.91,2.59,1.97.6,1.38,1.76,3.22-.64,7.11-1.72,2.79-5.46,8.24-6.44,9.86,0,0-6.32-9.76-6.74-11.06-.48-1.5-1.26-3.19-.07-5.7.98-2.07,3.67-2.68,5.39-1.16.05.05.11.1.16.15,0,0,.31.26.9,1.44l.41,1.04.61-1.03Z"/>
          </g>
          <g>
            <path class="st0" d="M39.79,104.46s-.26,9.19-7.18,11.58v.45h17.21v-.65s-6.31-.1-7.05-11.38h-2.98Z"/>
            <polygon class="st14" points="49.38 98.92 55.12 104.53 52.14 100.9 43.95 104.15 41.38 107.64 39.77 105.67 33.89 100.5 25.09 107.25 30.66 101.18 28.23 93.52 24.56 90.31 28.17 87.54 32.87 82.1 25.68 73.73 32.31 79 38.25 76.6 41.35 73.37 43.63 75.82 49.12 79.67 57.58 73.42 50.64 82.4 52.37 85.68 58.19 90.31 55.85 91.79 49.38 98.92"/>
            <path class="st0" d="M42.95,105.52s5.5-6.22,14.91,2.2c0,0-7.46-9.19-2.43-15.38.13-.17.3-.38.43-.55,0,0-6.57,5.37-14.69-1.69,0,0,6.06,8.1,1.78,15.42Z"/>
            <path class="st0" d="M26.66,92.15s5.94,5.77-2.1,15.62c0,0,8.77-7.82,14.68-2.54.16.14.36.31.53.45,0,0-5.13-6.88,1.61-15.39,0,0-7.73,6.35-14.71,1.87Z"/>
            <path class="st0" d="M55.96,88.53s-5.94-5.77,2.1-15.62c0,0-8.77,7.82-14.68,2.54-.16-.14-.36-.31-.53-.45,0,0,5.13,6.88-1.61,15.39,0,0,7.73-6.35,14.71-1.87Z"/>
            <path class="st0" d="M39.73,75.06s-5.5,6.22-14.91-2.2c0,0,7.46,9.19,2.43,15.38-.13.17-.3.38-.43.55,0,0,6.57-5.37,14.69,1.69,0,0-6.06-8.1-1.78-15.42Z"/>
          </g>
          <polygon class="st7" points="119.93 64.76 119.93 105.21 131.72 93.59 148.61 93.56 119.93 64.76"/>
          <g>
            <path class="st10" d="M194.07-23.33s3.85,21.65-10.88,28.06c0,0,14.37-2.02,21.75,20.73,0,0-3.93-21.91,11.03-27.76,0,0-15.09.02-21.9-21.03Z"/>
            <path class="st6" d="M195.81-15.56s2.62,14.75-7.41,19.12c0,0,9.79-1.38,14.82,14.13,0,0-2.68-14.93,7.51-18.92,0,0-10.28.01-14.93-14.33Z"/>
          </g>
          <g>
            <path class="st14" d="M100.61-13.85c-.05-.37.07-.61.16-.67.25-.15,7.64,11.21,9.19,13.6.18.28.27.62.23.96l-.06.62c-.07.76.43,1.44,1.17,1.61h0c.8.18,1.6-.32,1.79-1.12l.02-.07c.17-.73-.22-1.47-.91-1.75l-.61-.24c-.28-.11-.52-.3-.69-.55-1.54-2.24-9.35-13.66-8.81-13.92.07-.03.49.12,1.13.47,3.88,2.12,16.77,9.64,16.77,9.64.62.35,1.05.97,1.15,1.67l.58,6.03c.05.56-.21,1.1-.68,1.4l-10.4,6.76c-.46.3-1.05.33-1.54.06-1.74-.95-5.78-3.21-6.1-3.8-1.03-1.89-.79-7.76-2.4-20.71Z"/>
            <path class="st14" d="M125.15,8.69l-11.73,7.63c-.84.55-1.96.31-2.51-.53l-.6-.93c-.55-.84-.31-1.96.53-2.51l11.73-7.63c.84-.55,1.96-.31,2.51.53l.6.93c.55.84.31,1.96-.53,2.51Z"/>
            <path class="st14" d="M128.23,16.89l-8.57,5.58c-.95.62-2.23.35-2.85-.6l-1.72-2.64c-.62-.95-.35-2.23.6-2.85l8.57-5.58c.95-.62,2.23-.35,2.85.6l1.72,2.64c.62.95.35,2.23-.6,2.85Z"/>
          </g>
          <g>
            <ellipse class="st1" cx="211.86" cy="90.03" rx="10.85" ry="16.19" transform="translate(-16.63 117.99) rotate(-30)"/>
            <polyline class="st5" points="206.36 79.56 215.89 83.16 223.67 89.56 215.89 83.16 219.96 76.01"/>
          </g>
        </g>
      </g>
    </pattern>
  </defs>
  <rect class="st11" x="-.27" y="-.06" width="1134.31" height="1343.41"/>
  <rect class="st12" x=".12" y="4.2" width="1133.92" height="1339.14"/>
</svg>